<?xml version="1.0" standalone="no"?>
<!DOCTYPE svg PUBLIC "-//W3C//DTD SVG 20010904//EN"
 "http://www.w3.org/TR/2001/REC-SVG-20010904/DTD/svg10.dtd">
<svg version="1.0" xmlns="http://www.w3.org/2000/svg"
 width="445.000000pt" height="445.000000pt" viewBox="0 0 445.000000 445.000000"
 preserveAspectRatio="xMidYMid meet">
<metadata>
Created by potrace 1.14, written by Peter Selinger 2001-2017
</metadata>
<g transform="translate(0.000000,445.000000) scale(0.100000,-0.100000)"
fill="#000000" stroke="none">
<path d="M2026 3453 c-2 -2 -20 -5 -42 -7 -21 -3 -39 -5 -39 -6 0 -2 -11 -3
-25 -4 -14 -1 -29 -4 -35 -8 -5 -3 -29 -9 -52 -13 -51 -8 -57 -22 -10 -20 66
1 244 -58 295 -99 97 -78 157 -179 177 -301 7 -46 7 -198 0 -235 -13 -68 -19
-91 -40 -167 -13 -45 -31 -99 -40 -120 -46 -104 -99 -212 -119 -243 -113 -177
-186 -272 -279 -363 -27 -27 -47 -50 -45 -52 2 -2 30 19 63 47 230 196 323
287 477 473 96 115 232 362 253 458 2 12 10 47 18 78 18 75 15 213 -8 294 -35
129 -168 243 -320 275 -46 10 -222 20 -229 13z"/>
<path d="M1650 3272 c-47 -7 -94 -15 -105 -17 -60 -10 -250 -92 -380 -164 -48
-26 -204 -133 -231 -158 -14 -13 -27 -23 -30 -23 -3 0 -25 -19 -49 -41 -73
-69 -63 -66 -268 -65 l-189 1 -14 -27 c-8 -16 -12 -28 -10 -28 3 0 1 -11 -4
-25 -11 -30 -21 -72 -23 -100 -2 -19 4 -20 135 -20 75 0 139 -3 142 -6 3 -3
-4 -37 -15 -75 -11 -38 -22 -79 -25 -91 -2 -12 -9 -34 -14 -48 -5 -14 -8 -25
-6 -25 2 0 -3 -21 -11 -47 -8 -27 -26 -91 -39 -143 -14 -52 -27 -102 -31 -110
-3 -8 -7 -22 -8 -30 -2 -12 -26 -103 -51 -192 -5 -17 6 -18 124 -18 l130 0 10
43 c6 23 11 45 12 49 0 4 7 26 15 48 8 22 12 40 10 40 -3 0 0 12 6 28 6 15 12
34 14 42 2 8 24 94 49 190 26 96 49 186 52 199 3 13 9 32 15 43 5 10 8 18 5
18 -2 0 2 19 9 43 l12 42 134 1 c74 1 141 2 150 3 11 1 18 14 22 39 4 20 15
63 25 94 13 39 15 58 8 60 -6 2 -100 4 -208 3 -109 0 -198 3 -198 6 0 15 249
159 274 159 2 0 21 8 42 17 22 9 44 17 49 19 6 1 42 11 80 22 39 12 85 24 103
27 17 3 45 7 60 10 224 38 444 9 568 -76 51 -35 96 -85 113 -127 15 -36 37
-44 27 -9 -4 12 -8 45 -10 72 -8 103 -42 188 -103 253 -40 43 -136 94 -188 98
-16 2 -46 4 -65 6 -19 2 -73 -2 -120 -10z"/>
<path d="M1451 2793 c-73 -18 -94 -29 -131 -64 -49 -47 -107 -154 -110 -201
-1 -4 -7 -26 -15 -48 -8 -22 -14 -42 -15 -45 0 -3 0 -6 -1 -7 0 -2 -2 -10 -4
-19 -1 -9 -24 -94 -50 -190 -57 -209 -64 -294 -27 -346 14 -20 37 -36 60 -43
21 -5 148 -10 294 -10 l256 0 27 33 c14 17 33 40 41 50 101 124 264 415 264
470 0 16 -18 17 -217 15 l-217 -3 -14 -45 c-13 -43 -17 -59 -26 -107 -4 -19 1
-22 40 -25 24 -2 44 1 44 5 0 5 5 5 11 2 6 -4 26 -7 45 -7 23 0 34 -4 31 -11
-6 -16 -33 -116 -41 -149 l-6 -28 -160 0 c-154 0 -160 1 -174 23 -14 20 -12
33 15 132 16 61 31 119 34 130 17 75 63 234 73 252 24 44 45 47 287 49 127 1
235 2 242 3 11 1 20 19 28 58 2 11 10 43 19 73 9 29 13 56 10 59 -11 11 -567
6 -613 -6z"/>
<path d="M3809 2726 c-2 -2 -28 -7 -58 -10 -68 -8 -76 -14 -56 -36 21 -24 18
-28 -56 -81 -34 -24 -76 -56 -94 -71 -18 -16 -35 -28 -37 -28 -3 0 -110 -78
-238 -174 -175 -130 -238 -172 -250 -166 -8 5 -36 28 -61 52 -25 24 -57 53
-71 66 l-25 23 -69 -72 c-38 -39 -118 -122 -179 -184 -254 -259 -256 -262
-240 -275 13 -11 28 0 96 71 155 161 379 388 389 394 6 4 46 -26 90 -65 l79
-72 186 139 c102 76 218 162 258 191 40 29 107 78 151 110 43 31 87 64 98 71
18 13 22 13 33 -2 7 -9 15 -17 19 -17 7 0 66 118 66 132 0 8 -23 11 -31 4z"/>
<path d="M3664 2446 c-49 -38 -344 -246 -349 -246 -3 0 -13 -7 -22 -16 -32
-30 -286 -204 -297 -204 -6 0 -39 18 -74 40 -34 22 -68 40 -74 40 -6 0 -19 -9
-29 -21 -34 -40 -154 -174 -200 -224 -25 -27 -63 -70 -86 -95 -22 -25 -63 -70
-91 -100 -28 -30 -52 -60 -52 -65 0 -11 89 -7 91 4 7 53 18 74 77 141 37 41
74 82 82 90 8 8 33 35 54 60 111 128 142 157 161 150 20 -7 29 -36 14 -46 -5
-3 -9 -13 -9 -22 0 -25 -97 -214 -147 -287 -63 -92 -148 -194 -282 -337 l-75
-79 -2 -100 c-1 -55 -1 -99 1 -97 1 2 27 34 56 73 29 38 75 92 103 120 l50 50
8 -38 c17 -80 69 -145 145 -183 53 -27 69 -29 186 -32 l129 -4 -8 24 c-10 32
-12 195 -3 238 4 19 6 36 4 38 -2 2 -40 5 -84 6 l-81 1 7 -35 c4 -19 7 -62 7
-95 l1 -60 -38 1 c-50 2 -86 29 -114 84 -23 44 -30 104 -15 126 7 11 32 21 69
28 10 2 59 11 108 21 91 17 126 32 156 69 16 19 17 15 21 -81 3 -90 7 -105 31
-140 73 -106 216 -119 303 -28 49 51 56 78 59 241 1 61 5 116 9 123 5 8 -16
11 -74 11 l-82 0 8 -32 c8 -36 10 -228 2 -268 -7 -33 -47 -61 -76 -54 -12 4
-29 18 -36 33 -16 31 -21 230 -7 278 10 35 2 43 -50 43 -33 0 -33 -1 -19 34 9
24 13 26 57 20 163 -21 340 -14 388 15 6 3 12 6 15 7 12 2 66 25 82 34 24 13
35 13 35 -2 0 -7 3 -34 7 -60 l7 -48 -58 -1 c-32 0 -79 0 -106 1 -45 1 -47 1
-38 -22 11 -30 12 -340 1 -379 l-9 -29 84 0 85 0 -10 26 c-6 14 -10 49 -10 77
l0 52 21 -34 c11 -19 27 -40 35 -48 8 -8 14 -17 14 -21 0 -13 65 -51 95 -55
35 -5 73 10 98 37 24 27 22 31 -21 44 -21 6 -52 26 -70 43 -34 34 -39 46 -19
46 24 0 65 34 82 70 24 50 13 111 -25 148 -16 16 -32 42 -35 59 -3 17 -7 45
-10 61 -3 17 -8 48 -11 70 -8 48 -29 85 -49 85 -14 0 -14 3 -1 28 18 35 64 78
73 68 4 -4 21 -44 38 -89 l30 -81 42 -2 c23 0 46 2 51 5 19 13 103 182 104
208 0 16 -2 42 -6 59 -6 28 -5 30 21 31 24 0 73 6 133 16 42 7 159 85 160 108
0 3 -33 -3 -72 -13 -54 -14 -92 -18 -143 -13 -38 3 -88 6 -110 6 -37 1 -43 5
-68 48 -55 90 -165 189 -266 240 l-57 29 -30 -22z m113 -988 c4 -34 -28 -58
-78 -58 -40 0 -48 10 -40 50 l5 25 5 -23 6 -24 39 31 c45 36 58 36 63 -1z"/>
<path d="M90 1518 c0 -66 1 -69 21 -63 31 10 133 23 139 18 9 -9 2 -399 -9
-425 l-11 -28 91 0 c83 0 90 2 84 18 -12 28 -14 68 -15 237 -2 201 -2 192 13
198 13 5 91 -7 130 -19 15 -5 17 3 17 64 l0 70 -230 0 -230 0 0 -70z"/>
<path d="M597 1406 c1 -101 -2 -198 -7 -214 -10 -36 -2 -39 97 -34 61 4 62 4
52 28 -5 14 -9 48 -9 76 l0 51 36 -54 c61 -92 117 -121 180 -94 32 13 64 41
64 55 0 5 -13 11 -29 15 -29 6 -111 69 -111 86 0 5 9 9 19 9 29 0 79 56 87 95
12 68 -30 136 -97 155 -19 6 -90 10 -159 10 l-125 0 2 -184z m241 80 c9 -9 12
-24 7 -44 -7 -32 -26 -42 -82 -42 -33 0 -33 0 -33 48 0 27 3 52 7 56 11 11 85
-2 101 -18z"/>
<path d="M1137 1516 c-22 -95 -84 -280 -108 -322 l-19 -34 80 0 c72 0 79 2 75
19 -9 47 3 57 68 56 l62 -1 9 -36 c11 -43 15 -44 106 -40 l68 4 -23 46 c-30
62 -104 297 -107 344 l-3 37 -96 -1 -96 -1 -16 -71z m109 -79 c1 -7 9 -34 18
-60 9 -27 14 -52 11 -57 -3 -4 -23 -7 -46 -7 -36 1 -40 3 -34 21 4 12 10 37
15 56 14 65 30 85 36 47z"/>
<path d="M1510 1560 c10 -35 7 -371 -3 -387 -6 -10 19 -13 115 -13 98 0 131 4
163 19 81 37 126 107 126 195 0 68 -20 115 -66 159 -48 46 -101 58 -235 56
l-108 -1 8 -28z m215 -71 c52 -26 69 -126 33 -190 -20 -36 -35 -46 -84 -55
-27 -5 -30 11 -28 131 3 143 0 134 32 129 15 -2 36 -9 47 -15z"/>
<path d="M1967 1417 c1 -95 -2 -191 -6 -214 l-8 -43 56 -1 c31 0 94 0 141 0
162 0 147 -3 152 34 6 58 0 69 -35 62 -63 -11 -167 -17 -168 -8 -1 4 -2 28 -3
51 l-2 44 82 -4 83 -3 0 52 0 52 -42 -5 c-103 -11 -117 -11 -118 0 -1 6 -2 18
-3 26 -4 38 12 48 66 43 29 -2 67 -8 85 -13 36 -9 39 -5 38 55 l0 40 -160 2
-161 1 3 -171z"/>
<path d="M3959 1566 c5 -11 9 -75 10 -141 2 -102 5 -127 25 -165 55 -111 208
-141 301 -59 50 44 65 94 69 241 2 70 7 131 10 136 3 5 -27 10 -72 10 l-77 1
0 -159 c0 -129 -3 -162 -15 -174 -27 -25 -56 -28 -81 -7 -23 19 -24 23 -24
180 l0 160 -77 -1 c-73 -1 -76 -2 -69 -22z"/>
<path d="M606 1110 c-1 -3 -2 -23 -1 -44 l1 -39 180 -1 181 -1 -1 45 0 45
-179 0 c-98 0 -180 -2 -181 -5z"/>
<path d="M1050 1070 l0 -45 195 0 195 0 0 45 0 45 -195 0 -195 0 0 -45z"/>
<path d="M1520 1070 l0 -45 175 0 c108 0 176 4 178 10 2 6 3 25 3 44 l-1 35
-178 0 -177 1 0 -45z"/>
<path d="M1970 1070 l0 -45 157 1 157 1 1 44 1 44 -158 0 -158 0 0 -45z"/>
<path d="M3088 1085 c-7 -62 -13 -60 170 -59 l167 0 1 45 1 44 -168 0 -167 0
-4 -30z"/>
<path d="M3535 1071 l1 -45 180 0 180 -1 0 45 0 45 -182 0 -181 0 2 -44z"/>
<path d="M3995 1070 l1 -44 170 -1 171 0 -2 44 -1 44 -170 1 -169 1 0 -45z"/>
</g>
</svg>
